<?xml version="1.0" encoding="UTF-8" standalone="no"?>
<!DOCTYPE svg PUBLIC "-//W3C//DTD SVG 1.1//EN"
 "http://www.w3.org/Graphics/SVG/1.1/DTD/svg11.dtd">
<!-- Generated by graphviz version 2.26.3 (20100126.1600)
 -->
<!-- Title: g Pages: 1 -->
<svg width="490pt" height="522pt"
 viewBox="0.00 0.00 490.00 522.00" xmlns="http://www.w3.org/2000/svg" xmlns:xlink="http://www.w3.org/1999/xlink">
<g id="graph1" class="graph" transform="scale(1 1) rotate(0) translate(4 518)">
<title>g</title>
<polygon fill="white" stroke="white" points="-4,5 -4,-518 487,-518 487,5 -4,5"/>
<g id="graph2" class="cluster"><title>cluster0</title>
<polygon fill="none" stroke="black" points="8,-8 8,-506 106,-506 106,-8 8,-8"/>
<text text-anchor="middle" x="57" y="-489.4" font-family="Times Roman,serif" font-size="14.00">Files</text>
</g>
<g id="graph3" class="cluster"><title>cluster1</title>
<polygon fill="none" stroke="black" points="166,-8 166,-506 272,-506 272,-8 166,-8"/>
<text text-anchor="middle" x="219" y="-489.4" font-family="Times Roman,serif" font-size="14.00">Mapped</text>
</g>
<g id="graph4" class="cluster"><title>cluster2</title>
<polygon fill="none" stroke="black" points="354,-134 354,-380 474,-380 474,-134 354,-134"/>
<text text-anchor="middle" x="414" y="-363.4" font-family="Times Roman,serif" font-size="14.00">Reduced</text>
</g>
<!-- file_1 -->
<g id="node2" class="node"><title>file_1</title>
<polygon fill="none" stroke="black" points="24.5,-332 24.5,-472 89.5,-472 89.5,-332 24.5,-332"/>
<text text-anchor="middle" x="57" y="-453.6" font-family="Times Roman,serif" font-size="16.00">A.doc</text>
<polyline fill="none" stroke="black" points="24.5,-444 89.5,-444 "/>
<text text-anchor="middle" x="57" y="-425.6" font-family="Times Roman,serif" font-size="16.00">word1</text>
<polyline fill="none" stroke="black" points="24.5,-416 89.5,-416 "/>
<text text-anchor="middle" x="57" y="-397.6" font-family="Times Roman,serif" font-size="16.00">word2</text>
<polyline fill="none" stroke="black" points="24.5,-388 89.5,-388 "/>
<text text-anchor="middle" x="57" y="-369.6" font-family="Times Roman,serif" font-size="16.00">...</text>
<polyline fill="none" stroke="black" points="24.5,-360 89.5,-360 "/>
<text text-anchor="middle" x="57" y="-341.6" font-family="Times Roman,serif" font-size="16.00">wordk</text>
</g>
<!-- file_2 -->
<g id="node3" class="node"><title>file_2</title>
<polygon fill="none" stroke="black" points="24.5,-174 24.5,-314 89.5,-314 89.5,-174 24.5,-174"/>
<text text-anchor="middle" x="57" y="-295.6" font-family="Times Roman,serif" font-size="16.00">B.doc</text>
<polyline fill="none" stroke="black" points="24.5,-286 89.5,-286 "/>
<text text-anchor="middle" x="57" y="-267.6" font-family="Times Roman,serif" font-size="16.00">word1</text>
<polyline fill="none" stroke="black" points="24.5,-258 89.5,-258 "/>
<text text-anchor="middle" x="57" y="-239.6" font-family="Times Roman,serif" font-size="16.00">word2</text>
<polyline fill="none" stroke="black" points="24.5,-230 89.5,-230 "/>
<text text-anchor="middle" x="57" y="-211.6" font-family="Times Roman,serif" font-size="16.00">...</text>
<polyline fill="none" stroke="black" points="24.5,-202 89.5,-202 "/>
<text text-anchor="middle" x="57" y="-183.6" font-family="Times Roman,serif" font-size="16.00">wordk</text>
</g>
<!-- map_2 -->
<g id="node7" class="node"><title>map_2</title>
<polygon fill="none" stroke="black" points="174,-174 174,-314 264,-314 264,-174 174,-174"/>
<text text-anchor="middle" x="219" y="-295.6" font-family="Times Roman,serif" font-size="16.00">Map w2</text>
<polyline fill="none" stroke="black" points="174,-286 264,-286 "/>
<text text-anchor="middle" x="219" y="-267.6" font-family="Times Roman,serif" font-size="16.00">word2 : 1</text>
<polyline fill="none" stroke="black" points="174,-258 264,-258 "/>
<text text-anchor="middle" x="219" y="-239.6" font-family="Times Roman,serif" font-size="16.00">word2 : 1</text>
<polyline fill="none" stroke="black" points="174,-230 264,-230 "/>
<text text-anchor="middle" x="219" y="-211.6" font-family="Times Roman,serif" font-size="16.00">...</text>
<polyline fill="none" stroke="black" points="174,-202 264,-202 "/>
<text text-anchor="middle" x="219" y="-183.6" font-family="Times Roman,serif" font-size="16.00">word2 : 1</text>
</g>
<!-- file_2&#45;&gt;map_2 -->
<g id="edge5" class="edge"><title>file_2&#45;&gt;map_2</title>
<path fill="none" stroke="black" d="M105.693,-244C123.966,-244 144.863,-244 163.694,-244"/>
<polygon fill="black" stroke="black" points="156,-247.5 166,-244 156,-240.5 156,-247.5"/>
<text text-anchor="middle" x="136" y="-249.4" font-family="Times Roman,serif" font-size="14.00">Map()</text>
</g>
<!-- file_k -->
<g id="node4" class="node"><title>file_k</title>
<polygon fill="none" stroke="black" points="16,-16 16,-156 98,-156 98,-16 16,-16"/>
<text text-anchor="middle" x="57" y="-137.6" font-family="Times Roman,serif" font-size="16.00">XYZ.doc</text>
<polyline fill="none" stroke="black" points="16,-128 98,-128 "/>
<text text-anchor="middle" x="57" y="-109.6" font-family="Times Roman,serif" font-size="16.00">word1</text>
<polyline fill="none" stroke="black" points="16,-100 98,-100 "/>
<text text-anchor="middle" x="57" y="-81.6" font-family="Times Roman,serif" font-size="16.00">word2</text>
<polyline fill="none" stroke="black" points="16,-72 98,-72 "/>
<text text-anchor="middle" x="57" y="-53.6" font-family="Times Roman,serif" font-size="16.00">...</text>
<polyline fill="none" stroke="black" points="16,-44 98,-44 "/>
<text text-anchor="middle" x="57" y="-25.6" font-family="Times Roman,serif" font-size="16.00">wordk</text>
</g>
<!-- map_1 -->
<g id="node6" class="node"><title>map_1</title>
<polygon fill="none" stroke="black" points="174,-332 174,-472 264,-472 264,-332 174,-332"/>
<text text-anchor="middle" x="219" y="-453.6" font-family="Times Roman,serif" font-size="16.00">Map w1</text>
<polyline fill="none" stroke="black" points="174,-444 264,-444 "/>
<text text-anchor="middle" x="219" y="-425.6" font-family="Times Roman,serif" font-size="16.00">word1 : 1</text>
<polyline fill="none" stroke="black" points="174,-416 264,-416 "/>
<text text-anchor="middle" x="219" y="-397.6" font-family="Times Roman,serif" font-size="16.00">word1 : 1</text>
<polyline fill="none" stroke="black" points="174,-388 264,-388 "/>
<text text-anchor="middle" x="219" y="-369.6" font-family="Times Roman,serif" font-size="16.00">...</text>
<polyline fill="none" stroke="black" points="174,-360 264,-360 "/>
<text text-anchor="middle" x="219" y="-341.6" font-family="Times Roman,serif" font-size="16.00">word1 : 1</text>
</g>
<!-- reduce_2 -->
<g id="node11" class="node"><title>reduce_2</title>
<polygon fill="none" stroke="black" points="362,-216 362,-272 466,-272 466,-216 362,-216"/>
<text text-anchor="middle" x="414" y="-253.6" font-family="Times Roman,serif" font-size="16.00">Reduce w2</text>
<polyline fill="none" stroke="black" points="362,-244 466,-244 "/>
<text text-anchor="middle" x="414" y="-225.6" font-family="Times Roman,serif" font-size="16.00">w2 : 53</text>
</g>
<!-- map_2&#45;&gt;reduce_2 -->
<g id="edge7" class="edge"><title>map_2&#45;&gt;reduce_2</title>
<path fill="none" stroke="black" d="M271.702,-244C296.321,-244 325.81,-244 351.543,-244"/>
<polygon fill="black" stroke="black" points="344,-247.5 354,-244 344,-240.5 344,-247.5"/>
<text text-anchor="middle" x="313" y="-249.4" font-family="Times Roman,serif" font-size="14.00">Reduce()</text>
</g>
<!-- map_k -->
<g id="node8" class="node"><title>map_k</title>
<polygon fill="none" stroke="black" points="174,-16 174,-156 264,-156 264,-16 174,-16"/>
<text text-anchor="middle" x="219" y="-137.6" font-family="Times Roman,serif" font-size="16.00">Map wk</text>
<polyline fill="none" stroke="black" points="174,-128 264,-128 "/>
<text text-anchor="middle" x="219" y="-109.6" font-family="Times Roman,serif" font-size="16.00">wordk : 1</text>
<polyline fill="none" stroke="black" points="174,-100 264,-100 "/>
<text text-anchor="middle" x="219" y="-81.6" font-family="Times Roman,serif" font-size="16.00">wordk : 1</text>
<polyline fill="none" stroke="black" points="174,-72 264,-72 "/>
<text text-anchor="middle" x="219" y="-53.6" font-family="Times Roman,serif" font-size="16.00">...</text>
<polyline fill="none" stroke="black" points="174,-44 264,-44 "/>
<text text-anchor="middle" x="219" y="-25.6" font-family="Times Roman,serif" font-size="16.00">wordk : 1</text>
</g>
<!-- reduce_1 -->
<g id="node10" class="node"><title>reduce_1</title>
<polygon fill="none" stroke="black" points="362,-290 362,-346 466,-346 466,-290 362,-290"/>
<text text-anchor="middle" x="414" y="-327.6" font-family="Times Roman,serif" font-size="16.00">Reduce w1</text>
<polyline fill="none" stroke="black" points="362,-318 466,-318 "/>
<text text-anchor="middle" x="414" y="-299.6" font-family="Times Roman,serif" font-size="16.00">w1 : 10</text>
</g>
<!-- reduce_k -->
<g id="node12" class="node"><title>reduce_k</title>
<polygon fill="none" stroke="black" points="362.5,-142 362.5,-198 465.5,-198 465.5,-142 362.5,-142"/>
<text text-anchor="middle" x="414" y="-179.6" font-family="Times Roman,serif" font-size="16.00">Reduce wk</text>
<polyline fill="none" stroke="black" points="362.5,-170 465.5,-170 "/>
<text text-anchor="middle" x="414" y="-151.6" font-family="Times Roman,serif" font-size="16.00">wk : 77</text>
</g>
</g>
</svg>
